<svg width="25" height="25" viewBox="0 0 25 25" fill="none" xmlns="http://www.w3.org/2000/svg">
<path d="M23.4444 24.839C20.5765 24.839 17.7375 24.2196 14.9275 22.9806C12.1174 21.7417 9.56478 19.9751 7.26956 17.6808C4.97433 15.3865 3.20772 12.8398 1.96971 10.0408C0.731708 7.24172 0.112246 4.39678 0.111328 1.50596V0.0605469H8.23316L9.5065 6.97787L5.58324 10.9355C6.08799 11.8303 6.65009 12.6792 7.26956 13.4822C7.88902 14.2852 8.55437 15.0309 9.2656 15.7192C9.93095 16.3845 10.6596 17.0214 11.4516 17.6299C12.2436 18.2383 13.098 18.8059 14.0148 19.3327L18.0069 15.3406L24.8898 16.7516V24.839H23.4444Z" fill="#61E9FF"/>
</svg>
