<svg width="12" height="12" viewBox="0 0 12 12" fill="none" xmlns="http://www.w3.org/2000/svg">
<path d="M6.11034 10.6972C3.36944 10.6972 1.1416 8.46939 1.1416 5.7285C1.1416 2.98761 3.36944 0.759766 6.11034 0.759766C8.85123 0.759766 11.0791 2.98761 11.0791 5.7285C11.0791 8.46939 8.85123 10.6972 6.11034 10.6972ZM6.11034 1.45308C3.75308 1.45308 1.83491 3.37124 1.83491 5.7285C1.83491 8.08576 3.75308 10.0039 6.11034 10.0039C8.4676 10.0039 10.3858 8.08576 10.3858 5.7285C10.3858 3.37124 8.4676 1.45308 6.11034 1.45308Z" fill="#FEFEFE"/>
<path d="M4.80229 7.38442C4.71447 7.38442 4.62665 7.35207 4.55732 7.28274C4.42328 7.1487 4.42328 6.92684 4.55732 6.7928L7.17341 4.1767C7.30745 4.04266 7.52931 4.04266 7.66335 4.1767C7.79739 4.31074 7.79739 4.5326 7.66335 4.66664L5.04726 7.28274C4.98255 7.35207 4.89011 7.38442 4.80229 7.38442Z" fill="#FEFEFE"/>
<path d="M7.41838 7.38442C7.33056 7.38442 7.24274 7.35207 7.17341 7.28274L4.55732 4.66664C4.42328 4.5326 4.42328 4.31074 4.55732 4.1767C4.69136 4.04266 4.91322 4.04266 5.04726 4.1767L7.66335 6.7928C7.79739 6.92684 7.79739 7.1487 7.66335 7.28274C7.59402 7.35207 7.5062 7.38442 7.41838 7.38442Z" fill="#FEFEFE"/>
</svg>
