<svg width="16" height="16" viewBox="0 0 16 16" fill="none" xmlns="http://www.w3.org/2000/svg">
<path d="M2.16667 13.6068H3.35417L11.5 5.46094L10.3125 4.27344L2.16667 12.4193V13.6068ZM1.33333 15.2734C1.09722 15.2734 0.899445 15.1934 0.74 15.0334C0.580556 14.8734 0.500556 14.6757 0.5 14.4401V12.4193C0.5 12.197 0.541667 11.9851 0.625 11.7834C0.708333 11.5818 0.826389 11.4048 0.979167 11.2526L11.5 0.752604C11.6667 0.599826 11.8508 0.481771 12.0525 0.398438C12.2542 0.315104 12.4658 0.273438 12.6875 0.273438C12.9092 0.273438 13.1244 0.315104 13.3333 0.398438C13.5422 0.481771 13.7228 0.606771 13.875 0.773437L15.0208 1.9401C15.1875 2.09288 15.3089 2.27344 15.385 2.48177C15.4611 2.6901 15.4994 2.89844 15.5 3.10677C15.5 3.32899 15.4617 3.54094 15.385 3.7426C15.3083 3.94427 15.1869 4.12816 15.0208 4.29427L4.52083 14.7943C4.36806 14.947 4.19083 15.0651 3.98917 15.1484C3.7875 15.2318 3.57583 15.2734 3.35417 15.2734H1.33333ZM10.8958 4.8776L10.3125 4.27344L11.5 5.46094L10.8958 4.8776Z" fill="#61E9FF"/>
</svg>
