<svg width="29" height="23" viewBox="0 0 29 23" fill="none" xmlns="http://www.w3.org/2000/svg">
<path d="M25.5129 0.509766H3.48754C1.9733 0.509766 0.748141 1.74869 0.748141 3.26293L0.734375 19.7819C0.734375 21.2962 1.9733 22.5351 3.48754 22.5351H25.5129C27.0271 22.5351 28.266 21.2962 28.266 19.7819V3.26293C28.266 1.74869 27.0271 0.509766 25.5129 0.509766ZM24.9622 6.36024L15.2298 12.4447C14.7893 12.7201 14.2111 12.7201 13.7706 12.4447L4.03817 6.36024C3.90014 6.28275 3.77926 6.17807 3.68286 6.05251C3.58646 5.92696 3.51653 5.78315 3.47732 5.62979C3.4381 5.47642 3.43042 5.3167 3.45472 5.16028C3.47902 5.00386 3.53481 4.854 3.6187 4.71977C3.7026 4.58553 3.81286 4.46972 3.94281 4.37933C4.07276 4.28894 4.2197 4.22587 4.37474 4.19391C4.52978 4.16196 4.68969 4.16179 4.84479 4.19343C4.99989 4.22506 5.14696 4.28784 5.2771 4.37796L14.5002 10.1458L23.7233 4.37796C23.8534 4.28784 24.0005 4.22506 24.1556 4.19343C24.3107 4.16179 24.4706 4.16196 24.6257 4.19391C24.7807 4.22587 24.9276 4.28894 25.0576 4.37933C25.1875 4.46972 25.2978 4.58553 25.3817 4.71977C25.4656 4.854 25.5214 5.00386 25.5457 5.16028C25.57 5.3167 25.5623 5.47642 25.5231 5.62979C25.4839 5.78315 25.4139 5.92696 25.3175 6.05251C25.2211 6.17807 25.1003 6.28275 24.9622 6.36024Z" fill="#61E9FF"/>
</svg>
