<svg width="30" height="29" viewBox="0 0 30 29" fill="none" xmlns="http://www.w3.org/2000/svg">
<path d="M11.3104 5.14729C13.6398 4.86969 15.996 5.36211 18.0193 6.54934C20.0425 7.73657 21.6216 9.55336 22.5154 11.7223C22.5988 11.9468 22.5988 12.1938 22.5154 12.4183C22.1479 13.3093 21.6622 14.1468 21.0714 14.9083M14.6614 14.2293C14.0956 14.7758 13.3378 15.0781 12.5512 15.0713C11.7646 15.0645 11.0122 14.749 10.456 14.1927C9.89973 13.6365 9.58422 12.8841 9.57739 12.0975C9.57055 11.3109 9.87294 10.5531 10.4194 9.98729M18.0564 17.5703C16.7299 18.3561 15.2499 18.8473 13.7168 19.0107C12.1837 19.1741 10.6334 19.0058 9.17104 18.5172C7.70872 18.0286 6.3686 17.2312 5.24162 16.179C4.11464 15.1269 3.22716 13.8446 2.63941 12.4193C2.55607 12.1948 2.55607 11.9478 2.63941 11.7233C3.52604 9.57314 5.08608 7.76854 7.08541 6.58029M2.57741 2.07129L22.5774 22.0713" stroke="#FEFEFE" stroke-linecap="round" stroke-linejoin="round"/>
</svg>
