<svg width="18" height="18" viewBox="0 0 18 18" fill="none" xmlns="http://www.w3.org/2000/svg">
<path d="M8.62866 2.48033C10.8728 2.48033 11.1386 2.48873 12.0251 2.52916C12.5581 2.53568 13.0861 2.63355 13.586 2.81853C13.9486 2.95835 14.2778 3.17254 14.5526 3.4473C14.8274 3.72207 15.0416 4.05133 15.1814 4.41388C15.3664 4.91383 15.4642 5.44179 15.4708 5.97482C15.5108 6.86135 15.5196 7.1271 15.5196 9.37125C15.5196 11.6154 15.5112 11.8811 15.4708 12.7677C15.4642 13.3007 15.3664 13.8287 15.1814 14.3286C15.0416 14.6912 14.8274 15.0204 14.5526 15.2952C14.2778 15.57 13.9486 15.7841 13.586 15.924C13.0861 16.1089 12.5581 16.2068 12.0251 16.2133C11.139 16.2534 10.8732 16.2622 8.62866 16.2622C6.38412 16.2622 6.11836 16.2538 5.23223 16.2133C4.6992 16.2068 4.17124 16.1089 3.6713 15.924C3.30874 15.7841 2.97948 15.57 2.70472 15.2952C2.42995 15.0204 2.21576 14.6912 2.07594 14.3286C1.89097 13.8287 1.79309 13.3007 1.78657 12.7677C1.74654 11.8811 1.73774 11.6154 1.73774 9.37125C1.73774 7.1271 1.74614 6.86135 1.78657 5.97482C1.79309 5.44179 1.89097 4.91383 2.07594 4.41388C2.21576 4.05133 2.42995 3.72207 2.70472 3.4473C2.97948 3.17254 3.30874 2.95835 3.6713 2.81853C4.17124 2.63355 4.6992 2.53568 5.23223 2.52916C6.11876 2.48913 6.38452 2.48033 8.62866 2.48033ZM8.62866 0.96582C6.3473 0.96582 6.05992 0.975426 5.16339 1.01625C4.46579 1.03013 3.7756 1.16221 3.12217 1.40688C2.56163 1.61808 2.05392 1.94903 1.63448 2.37666C1.20646 2.79626 0.87522 3.30426 0.663896 3.86515C0.419222 4.51858 0.287138 5.20878 0.273263 5.90637C0.233239 6.80211 0.223633 7.08948 0.223633 9.37085C0.223633 11.6522 0.233239 11.9396 0.274063 12.8361C0.287938 13.5337 0.420023 14.2239 0.664697 14.8773C0.875786 15.4382 1.20675 15.9461 1.63448 16.3658C2.05416 16.7936 2.56214 17.1245 3.12297 17.3356C3.7764 17.5803 4.46659 17.7124 5.16419 17.7262C6.06072 17.7663 6.3469 17.7767 8.62946 17.7767C10.912 17.7767 11.1982 17.7671 12.0947 17.7262C12.7923 17.7124 13.4825 17.5803 14.136 17.3356C14.6941 17.1193 15.201 16.7888 15.6241 16.3654C16.0473 15.9419 16.3774 15.4348 16.5934 14.8765C16.8381 14.2231 16.9702 13.5329 16.9841 12.8353C17.0241 11.9396 17.0337 11.6522 17.0337 9.37085C17.0337 7.08948 17.0241 6.80211 16.9833 5.90557C16.9694 5.20798 16.8373 4.51778 16.5926 3.86435C16.3815 3.30353 16.0506 2.79554 15.6228 2.37586C15.2032 1.94814 14.6952 1.61717 14.1344 1.40608C13.4809 1.16141 12.7907 1.02933 12.0931 1.01545C11.1974 0.975426 10.91 0.96582 8.62866 0.96582Z" fill="#202334"/>
<path d="M8.62966 5.05664C7.776 5.05664 6.94151 5.30978 6.23172 5.78405C5.52193 6.25832 4.96871 6.93241 4.64203 7.72109C4.31535 8.50977 4.22987 9.37761 4.39641 10.2149C4.56295 11.0521 4.97403 11.8212 5.57766 12.4248C6.18129 13.0285 6.95036 13.4395 7.78761 13.6061C8.62487 13.7726 9.49271 13.6871 10.2814 13.3605C11.0701 13.0338 11.7442 12.4806 12.2184 11.7708C12.6927 11.061 12.9458 10.2265 12.9458 9.37282C12.9458 8.2281 12.4911 7.13026 11.6817 6.32082C10.8722 5.51138 9.77438 5.05664 8.62966 5.05664ZM8.62966 12.1745C8.07554 12.1745 7.53387 12.0102 7.07313 11.7023C6.6124 11.3945 6.2533 10.9569 6.04125 10.445C5.8292 9.93304 5.77371 9.36971 5.88182 8.82624C5.98992 8.28277 6.25675 7.78356 6.64858 7.39174C7.0404 6.99992 7.53961 6.73308 8.08308 6.62498C8.62655 6.51688 9.18988 6.57236 9.70181 6.78441C10.2138 6.99646 10.6513 7.35556 10.9592 7.81629C11.267 8.27703 11.4313 8.8187 11.4313 9.37282C11.4313 10.1159 11.1362 10.8285 10.6107 11.3539C10.0853 11.8793 9.37271 12.1745 8.62966 12.1745Z" fill="#202334"/>
<path d="M13.117 5.89318C13.674 5.89318 14.1256 5.44162 14.1256 4.88458C14.1256 4.32754 13.674 3.87598 13.117 3.87598C12.56 3.87598 12.1084 4.32754 12.1084 4.88458C12.1084 5.44162 12.56 5.89318 13.117 5.89318Z" fill="#202334"/>
</svg>
