<svg width="25" height="32" viewBox="0 0 25 32" fill="none" xmlns="http://www.w3.org/2000/svg">
<path d="M9.90571 29.1002C10.7399 29.7885 11.6099 30.4176 12.5006 31.0316C13.3931 30.4257 14.2589 29.7813 15.0954 29.1002C16.4899 27.9552 17.8023 26.7137 19.0228 25.3848C21.8366 22.3081 24.8898 17.848 24.8898 12.8414C24.8898 11.2144 24.5694 9.60336 23.9467 8.10023C23.3241 6.5971 22.4115 5.23132 21.2611 4.08087C20.1106 2.93043 18.7449 2.01784 17.2417 1.39522C15.7386 0.772606 14.1275 0.452148 12.5006 0.452148C10.8736 0.452148 9.26254 0.772606 7.75941 1.39522C6.25628 2.01784 4.8905 2.93043 3.74005 4.08087C2.58961 5.23132 1.67702 6.5971 1.0544 8.10023C0.431785 9.60336 0.111328 11.2144 0.111328 12.8414C0.111328 17.848 3.16459 22.3068 5.97832 25.3848C7.19883 26.7141 8.51119 27.9547 9.90571 29.1002ZM12.5006 17.3153C11.314 17.3153 10.1761 16.8439 9.33705 16.0049C8.49803 15.1659 8.02668 14.0279 8.02668 12.8414C8.02668 11.6548 8.49803 10.5169 9.33705 9.67787C10.1761 8.83885 11.314 8.3675 12.5006 8.3675C13.6871 8.3675 14.8251 8.83885 15.6641 9.67787C16.5031 10.5169 16.9745 11.6548 16.9745 12.8414C16.9745 14.0279 16.5031 15.1659 15.6641 16.0049C14.8251 16.8439 13.6871 17.3153 12.5006 17.3153Z" fill="#61E9FF"/>
</svg>
