<svg width="15" height="12" viewBox="0 0 15 12" fill="none" xmlns="http://www.w3.org/2000/svg">
<path d="M14.072 1.62689C13.5521 1.85796 13.0033 2.00238 12.4256 2.08903C13.0033 1.74243 13.4654 1.19365 13.6676 0.529331C13.1188 0.847047 12.5123 1.07811 11.848 1.22253C11.3281 0.673747 10.5771 0.327148 9.76836 0.327148C8.20867 0.327148 6.93781 1.59801 6.93781 3.15771C6.93781 3.38877 6.96669 3.59096 7.02446 3.79314C4.68491 3.67761 2.57643 2.55116 1.16116 0.818164C0.930089 1.25141 0.785673 1.71354 0.785673 2.23344C0.785673 3.21547 1.27669 4.08197 2.05654 4.60187C1.5944 4.57299 1.16116 4.45745 0.75679 4.25527V4.28415C0.75679 5.67055 1.73882 6.82588 3.03857 7.08583C2.8075 7.1436 2.54755 7.17248 2.2876 7.17248C2.1143 7.17248 1.91212 7.1436 1.73882 7.11471C2.1143 8.24116 3.1541 9.07877 4.39608 9.07877C3.41405 9.82974 2.20095 10.2919 0.872323 10.2919C0.641257 10.2919 0.410191 10.2919 0.208008 10.263C1.47887 11.0717 2.95192 11.5339 4.56938 11.5339C9.79725 11.5339 12.6567 7.20136 12.6567 3.44654C12.6567 3.33101 12.6567 3.18659 12.6567 3.07106C13.2055 2.69557 13.6965 2.20456 14.072 1.62689Z" fill="#202334"/>
</svg>
